<svg xmlns="http://www.w3.org/2000/svg" width="512" height="512" fill="none" shape-rendering="auto" viewBox="0 0 256 256"><mask id="viewboxMask"><rect width="256" height="256" x="0" y="0" fill="#fff" rx="0" ry="0"/></mask><g mask="url(#viewboxMask)"><path fill="#fff" d="M174.2 103.2c.4.4.5 1 .3 1.5.3.1.5.3.7.6 2.3 4.5 4.5 9.8 6.4 15.5l.7-.2 1.7-.7c1-.3 2.1-.6 3.3-.7 1.1 0 2.4.1 3.5.9 1 .7 1.8 2 2.2 3.5 1.3 5.7 1.3 9.3 0 15.2a7 7 0 0 1-2.1 4c-1 .7-2 1-3 1.1a159.9 159.9 0 0 1 2.6 21.4c0 2.7-.1 5-.4 7-.4 2-1 3.7-1.9 5a38.7 38.7 0 0 1-18.6 10.3 150.8 150.8 0 0 1-59.5 4.1 62 62 0 0 1-24-7.5c-4.3-2.7-7.3-8-9.4-14.3a91.6 91.6 0 0 1-4.1-22.5c-3.3 0-7.4-3.2-9.8-11.2-1.3-4.7-1-8.7 1.1-11.2 2.2-2.4 5.7-2.8 9.5-1.7.8-5.8 2.2-10.7 4.1-14l.5-.4a38 38 0 0 1 16.2-12.6 90.5 90.5 0 0 1 26.2-7.5c19.2-2.5 40.6.5 53.8 14.4Z"/><g stroke="#000" stroke-linecap="round" stroke-linejoin="round" stroke-width="3"><path d="M174.8 105c11.3 21.8 19.2 65 13.4 72.3C175 194 109 199 86 184.2c-15.5-10-16.5-61.2-8.3-75M183 121.7c3-1 8.5-3.8 9.8 1.8 1.3 5.6 1.3 9 0 15-.7 3-2.3 4-4.3 4"/><path d="M72.2 124.3c-7.6-2.4-12.1 2-9.4 11.4 2.6 9 7 10.8 9.4 10.3"/></g><path stroke="#000" stroke-linecap="round" stroke-linejoin="round" stroke-width="3" d="M125.7 137c3.9 2.1 11 11.9 10.2 17.3-.5 3.6-8.5 2.5-12.9 1.7"/><g stroke="#000" stroke-linecap="round" stroke-linejoin="round" stroke-width="3"><path d="M152.3 181.7c4.9-9.4-1.4-10-6.6-7.4a48.9 48.9 0 0 1-23.5 2.4c-6.4-2.4-9.8-6.7-10.2 4.3-.4 11 36.2 8.6 40.3.8Z"/><path d="M113.2 179.9c8 2.7 27 5.8 39.2-4M122 179l-1 5.6m7.8-4.2-.5 6.2m7.1-6.9 1 6.4m6.9-8.3 1.4 7"/></g><g stroke="#0fa958" stroke-linecap="round" stroke-linejoin="round" stroke-width="3"><path d="M83.3 98.9c-5.8-4-11-6.4-16.1-7.5m12.1 9.8C75.8 100 72.9 100 66 100m22-3.4c-4.1-4-11.6-11-13.4-13.3M90.2 93c-3-2.2-9.6-8.6-11-15.5m4.7-1.1c.5 1.9 2 7.4 6.9 13.2 2.9 3.5 5.2 5.2 7 8.1m-9.3-22.5c1.1 5.2 5.2 13.3 10.4 16.2m3.4 3.4c-5.2-4-8.6-15.5-9.2-21.9m4-3.4c0 4 0 15 6.4 19m-1.2-16.7c2 4.9 6 16.7 6 24.3m.1-12.2a42 42 0 0 1-1.2-14.4m4.3 6.9c.4 4.2 2 13.6 5.2 17.3"/><path d="M116.2 67.7c-.8 4.6-3 17.9-.6 24.2m2.3-12.6c1 4 4 11 8.6 13.8"/><path d="M123 89c-2.8-6.9-2.1-15.6-1.7-20.7m2.9 4.7c0 2 1.2 8.3 5.8 16.6"/><path d="M130 67.7a44 44 0 0 0 0 22m2.9-15.1a39.3 39.3 0 0 0 4.6 22m1.7-7.6c1.2-9.2-1.2-14.4-2.3-19m3.5 11c3.4 5.8 4 9.8 3.4 15m-1.5-19c-.6-2.2-1.4-7.3 0-11M75.8 90.2a19 19 0 0 1-7.5-4m82.9-6.5c.8-2.3 1.6-9.3 1.2-12.5m-5.1 1.1a66.1 66.1 0 0 0 1.7 26.5m4.2.2c-.4-2.4-1.1-8.1 0-11.7M157 93c-.3-3.4-1.2-15.6 3-20.7m1.1 22.5V78.7m9.9 1.7c-2.2 1.2-8.2 7-9.9 14.4m8.1-23c-1.3 1.2-4 4.8-4.6 9.2m9.8-2.3c-2 3.2-5.8 11.2-5.8 16.7m11-13.3c-3.1 3.5-9.5 11-10.4 13.3m13.8-1.7s-5.7 1.7-10.4 5.7"/></g><path stroke="#000" stroke-linecap="round" stroke-linejoin="round" stroke-width="3" d="M104 138.6c-1.8-1.7.5-4.4 2.5-3.4 2.5 1.3 3.4 4.3 1.2 6.5s-7.2.8-7.5-4.5c-.3-5.3 6.5-9.2 10-3 3.3 6.3 2.2 11.9-5.2 11.9-5.1 0-7.3-3.6-7.9-7-1-6.7 2.5-13.6 9.7-12 4.5 1 9.7 4 8.8 13.3-1 9.3-6 10.3-12.3 9.2-7.7-1.3-9.8-8.2-7.3-16m53.5 5c-1.9-1.7.4-4.4 2.4-3.4 2.5 1.3 3.4 4.3 1.2 6.5-2.1 2.2-7.1.8-7.5-4.5-.3-5.3 6.5-9.2 10-3 3.3 6.3 2.2 11.9-5.2 11.9-5.1 0-7.3-3.6-7.8-7-1-6.7 2.4-13.6 9.7-12 4.4 1 9.6 4 8.7 13.3-1 9.3-6 10.3-12.3 9.2-7.7-1.3-9.8-8.2-7.3-16m-40.6-14.7c3 2.2 8.8 2.6 12 1m30.4-.1c3.6 1 9.2-.3 11.8-2.8"/></g></svg>