<svg xmlns="http://www.w3.org/2000/svg" width="512" height="512" fill="none" shape-rendering="auto" viewBox="0 0 256 256"><mask id="viewboxMask"><rect width="256" height="256" x="0" y="0" fill="#fff" rx="0" ry="0"/></mask><g mask="url(#viewboxMask)"><path fill="#fff" d="M73.3 106.5c2-5.5 4-9.8 5.4-12.2-.1-.4 0-.8.1-1.1 3-4.9 9-9.3 16.4-12.9a90.7 90.7 0 0 1 26.3-7.5c19.2-2.5 40.7.5 53.9 14.4.2.3.4.6.4 1 1 1.1 2.2 3.2 3.6 6a109 109 0 0 1 4.4 10.2c1.4-.5 3-.7 4.6-.5a7 7 0 0 1 5.4 3.3c2 3.5 2.9 10 1.6 15.8a6.7 6.7 0 0 1-2.6 4.2 6 6 0 0 1-2.3 1c.5 2.8 1 5.6 1.3 8.5 2.8 23.3-1.3 49.6-26 62.6-23.6 12.4-47 16-65.6 12.3-18.7-3.8-32.6-15-36.7-32.5-3.2-13.5-1.3-31 2.2-46.7-1.5-.3-3-1.4-3.9-3-1.3-2.1-2-5.2-1.7-9.2.5-6.2 2.1-10.6 4.8-12.8a7 7 0 0 1 4.6-1.8 9 9 0 0 1 3.8.9Z"/><g stroke="#000" stroke-linecap="round" stroke-linejoin="round" stroke-width="3"><path d="M79 93.7c-6 10-22.2 57.6-15.5 86.4 8.1 34.4 54.6 44.9 102.1 19.7C214.3 174 182.2 95.5 175.3 88"/><path d="M184.3 105.4c2.6-1.1 7.4-1.3 9.3 2 1.8 3.2 2.7 9.3 1.4 15.1-.7 3.3-3 4.3-5 4.3m-117.5-19c-5.9-3.5-11.4-.2-12.4 12.2-.7 7.9 2.9 11.4 5.4 11"/></g><path stroke="#000" stroke-linecap="round" stroke-linejoin="round" stroke-width="3" d="M136.8 128c2.7 8 7.6 25.3 5.8 29.4-2.1 5-5.4-2.3-5.4 3.5-1 2.8-3.8 3.2-5.1-1.6-1.3-4.7-5.2 3.5-6.5 1.6-3.6-1.6-.7-7.1 1.2-8.9M105.5 194c-1.3 2.1.4 7.7 15.3 6.8 14.9-1 19-9 14.5-8.8-6.2.2-10.7 4.2-20.1 2-3.4-.7-8.5-2-9.7 0Z"/><g stroke="#000" stroke-linecap="round" stroke-linejoin="round" stroke-width="3"><path d="M114.4 11c-10.8 5-32.6 21.4-33.8 45-1.5 29.7-6.6 42.6-1.2 47.8 5.4 5.1 21.9-10.7 48-6.2 26 4.6 44.9 5.9 48.7 0 3.8-5.8 2.7-51.9-3.4-64.1-6.1-12.3-23.3-22-38.6-22.6"/><path d="M78 89.4c25.7-3.9 81.7-9.2 99.3 0m-59.1-76.1C111.6 21 97.5 39 94.4 50.5c-3 11.4-3 29.5-3.2 35.6m32.6-73.3c-6.6 7.6-8.5 23.8-11.6 35.2-3 11.5-2.7 30-3 36"/><path d="M133.4 11.4c9.8 4.9 12.9 25 14.3 36.8a338 338 0 0 1 2.6 36.3m-22-72.6c4.4 2.4 3.1 14 1.3 32a112.7 112.7 0 0 0 1.5 40.1M111-3.5c2.9 1.4 8.4 6.6 10.9 9-2-4-4.2-21 3.6-20.5 7.7.5 4.4 13.6 2.6 18.9 2.2-2.5 8.8-9.4 11.2-7.4 3 2.4 1.9 12.2-9.2 14.5-4.1.8-8.2 2.4-14.3 0-6-2.5-10.2-5.5-12.7-9.7-2.4-4.2 4.3-6.6 7.9-4.8Z"/></g><g stroke="#000" stroke-linecap="round" stroke-linejoin="round" stroke-width="3"><path d="M91.4 128.8c2.2-3.1 9-8.4 19-4"/><path d="M100 124.3c-1 .5-2.8 2.1-1.6 4.5 1.5 3 6.5.5 6-1.5-.4-1.6-2.1-2-3-2M88 113.6c4.8-1.6 16.2-3.6 23 2.4m31.4-2.4c4.8-1.7 16.2-3.6 23 2.3M139 117c6.4-.8 24.3 1.6 27 3.2 3 1.8 3.5 15.2 1.2 21.6-1.2 3.2-13.3 6.7-23.8 0-7.5-4.7-5.9-18.8-5-23.7"/><path d="M141.6 120c-.7 1.9-1.8 8.5-2.5 10.8l5-10.2c-.7 3.2-3.5 14.2-3.3 15.2.3 1.2 5.9-15.3 6.5-15.2.6 0-4.4 16.9-4.4 17.9s5.8-17.2 6.7-17.2c.9 0-4.4 17.9-3.8 18.8.6.9 5.2-17.3 6-18.2.6-.9-4.7 20.1-3.8 20.1.8 0 6.1-21 6.9-19 .7 2-5.1 22-3.2 20.3 2-1.6 5.6-21.8 7-20.3 1.5 1.5-4.4 20.8-3.2 20.3 1.3-.5 5.5-19.3 6.1-19.3.6 0-2.4 20.8-1.8 19.4l5-19.4c.3-1.2 0 3 0 6.9-.1 3-2.2 10.5-2.5 12.5l4.4-14.6c0 2.3 0 7.6-.3 10.1-.3 2.6-.8 3.7-1 4M77 92a253.7 253.7 0 0 0 58.6 26c3 .8 28 4.5 32 2.3 3.3-1.7 11.2-14 13-16"/></g></g></svg>