<svg xmlns="http://www.w3.org/2000/svg" width="512" height="512" fill="none" shape-rendering="auto" viewBox="0 0 256 256"><mask id="viewboxMask"><rect width="256" height="256" x="0" y="0" fill="#fff" rx="0" ry="0"/></mask><g mask="url(#viewboxMask)"><path fill="#fff" d="M175 107.8c.3.4.5.8.4 1.3 1.9 2.3 3.5 5 4.8 8 1.2-.4 2.5-.7 3.9-.6 1.7.2 3.3 1.1 4.4 3 2 3.5 3.4 8 1.8 14.6a7.9 7.9 0 0 1-2.7 4.6 6 6 0 0 1-2.4 1 54 54 0 0 1-1.6 15 55 55 0 0 1-46 38.4c-24 2.2-47.9-4.1-59.6-27a43 43 0 0 1-5.7-17.5c-1.4 0-2.9-.6-4.1-2a15.5 15.5 0 0 1-3-8.3c-.7-5.7.2-9.9 2-12.4 1-1.3 2.2-2.2 3.6-2.6 1.2-.4 2.6-.3 3.8.2a33.1 33.1 0 0 1 4-9l.3-.7c2.9-4.9 8.8-9.4 16.2-13a89.6 89.6 0 0 1 26.3-7.5c19-2.5 40.4.5 53.6 14.5Z"/><g stroke="#000" stroke-linecap="round" stroke-linejoin="round" stroke-width="3"><path d="M78.7 115c-6.1 8.7-10.8 34.3-.6 51 11.6 22.5 35.3 28.9 59.6 26.6a54.7 54.7 0 0 0 45.7-38A56 56 0 0 0 175 109"/><path d="M181.2 118.4c2.6-1.2 5.6-1.7 7.4 1.5 1.9 3.2 3.2 7.3 1.7 13.6-1 4-3.3 4.9-5.3 4.9M73 124.6c-4.2-2-9.1 2.3-7.8 13.4 1 7.8 4 9.5 6.5 9.2"/></g><path stroke="#000" stroke-linecap="round" stroke-linejoin="round" stroke-width="3" d="M126 169.8c3.7 0 8.5-1.5 9.2-6 .6-3.7-5.6-3.1-7.3-7.4a70.4 70.4 0 0 1 .1-23.4M102 183.8s5.7-2.8 7.1-7.6m1.1 1.8c.2.8-7 9.3-7 9.3m9-9.7c-.5 4.1-5.2 10.3-5.2 10.3m2.6 1.1s5.3-4.8 5.8-10.3m2.2-.3c0 3.5-1.7 11.2-1.7 11.2m27.7-12.9V189m-26.9.2s4.2-5.3 4.2-9.6m26.3 7.6s-3-6.2-3-10.6m-20.9 2.6c.3 2.4-2.9 9.8-2.9 9.8m33.1-13.1c.3 2.3 5.4 8.3 5.4 8.3m-11.7-7.2a50 50 0 0 0 4.8 9.8m-26.3-7.8c-.6 4-1.3 10.7-1.3 10.7m24.4-13.4 6.4 9.2m-27.2-6.6c.6 2.8.8 8.6 3.7 10.6m24.8-13.2c1.5 2.3 4.4 5.9 8.2 6.8M132 178c0 1.3-1.8 5.9 1 11m5 .5s-5-6.2-5-11.5m2.5-.4c0 3.8 6.1 12 6.1 12m.9-.6c-.6-2-3.8-9.3-3.4-12.5"/><path stroke="#ffc700" stroke-linecap="round" stroke-linejoin="round" stroke-width="3" d="M84.3 110.7c-5.6-4.5-4.8-3.7-10-5.3m13.2-7c-2.8-1.2-4.7-3.4-6.7-5.6M188 112.5s-6.2-.3-12 2m3.4-16.9s-5.3 3.1-9 8.2M169 86.6s-4.4 4.2-6.8 10m-6.1-17.1s-3.5 5-4.7 11.2m-10.6-13.5s-2.6 5.5-2.8 11.8m-15.6-13s-1.3 6 0 12.1m-16.9-10.2s2.4 5.6 7 9.8M93 84.2s3 4.3 7.4 9"/><g stroke="#000" stroke-linecap="round" stroke-linejoin="round" stroke-width="3"><path d="M134.3 174.1c-6-2.3-20.4-2.7-28.3 2.8-8 5.5-10.1 7-5.9 7.8a74 74 0 0 0 31.7-2.7 7 7 0 0 0 3.3-7.3"/><path d="M154.4 173c-12-4.3-17-1-18.6 2.7-.7 1.5-1.2 4.8 1.3 5.8 3 1.2 22.8 1.3 32-1.6 2.6-2.2-3.4-2.8-14.7-6.8Z"/></g><g stroke="#000" stroke-linecap="round" stroke-linejoin="round" stroke-width="3"><path d="M102.5 147.3c-5.1.3-8.2-4-9.2-6 5.7-5.3 14.2-2.3 17.8-.3-.7 2-3.4 6-8.6 6.3Z"/><path d="M100.6 143.2c.8.5 2.7 1.1 4-.8 1.6-2.4-2.4-5-3.7-3.8-1 1-.6 2.4-.2 3m62-.4c1-.4 2.6-1.8 1.6-4-1.2-2.8-5.8-.8-5.5 1 .3 1.5 1.9 2 2.6 2"/><path d="M162.7 144.8c-5 1.2-9-2.8-9.8-5.5 4.6-6 15-3.5 17.6-1.3-.4 2-2.8 5.7-7.8 6.8ZM89.3 127c5.5-1.1 18.3-1.5 25.2 5.1m33.1-.4c3.3-5.4 14.2-11.2 22-7.6"/></g></g></svg>