<svg xmlns="http://www.w3.org/2000/svg" width="512" height="512" fill="none" shape-rendering="auto" viewBox="0 0 256 256"><mask id="viewboxMask"><rect width="256" height="256" x="0" y="0" fill="#fff" rx="0" ry="0"/></mask><g mask="url(#viewboxMask)"><path fill="#fff" d="M122.4 75.3c18.8-2.5 39.9.4 53.1 13.9l.6.2c3 2 4.6 4.2 6 7.5 1 2.7 1.8 6 2.8 10.5 1.3.1 3.5.5 5.4 2.1 2.2 2 3.3 5.5 2.3 11.2-.8 4.9-1.6 7.7-3.5 11-.7 1.5-1.8 3-3 4a4.8 4.8 0 0 1-5.2.5 249.6 249.6 0 0 1-18.5 46.7 93 93 0 0 1-15.2 20.2 27.8 27.8 0 0 1-19.2 8.4 16 16 0 0 1-8.5-3.3 58 58 0 0 1-9.4-8.3 194.4 194.4 0 0 1-36.2-59.6c-1.6.5-3.8.3-5.8-1.6-2-1.8-3.6-5.2-4.7-10.9-2-10.9 4.2-17.2 9.2-17.2h.1c1-4.2 1.9-7 2.8-9 1.2-2.7 2.5-4.1 4-5.8a72.8 72.8 0 0 0 1.3-1.5C83.9 90 89.4 86.1 96 83a90 90 0 0 1 26.3-7.6Z"/><g stroke="#000" stroke-linecap="round" stroke-linejoin="round" stroke-width="3"><path d="M185.5 108.6c2.2 0 9 .8 7 11.9-.8 4.9-1.6 7.5-3.4 10.8-1.5 2.9-3.7 5.2-6.4 3.9M71.3 111.8c-3.8 0-10 5.4-8 16 2.3 11.3 6.6 12.2 8.8 11.5"/><path d="M80.5 95c-4 4.9-5.7 4.9-9.7 25.7-4 20.8 38.7 91.3 57.2 91.3 14 0 24.2-12.4 33.8-28.5 6.7-11.2 26-61.3 23.4-73.3-2.6-12-3.5-16.6-9-20.2"/></g><path stroke="#000" stroke-linecap="round" stroke-linejoin="round" stroke-width="3" d="M136.8 127c2.7 8 7.6 25.3 5.8 29.4-2.1 5-5.4-2.3-5.4 3.5-1 2.8-3.8 3.2-5.1-1.6-1.3-4.7-5.2 3.5-6.5 1.6-3.6-1.6-.7-7.1 1.2-8.9M110.6 191.8c4.7 4 13.5 6.5 22.5 5.4a25 25 0 0 0 18.8-10.7m-44.9 8c1.6-1 4.8-3.7 5-6.6m38.1-3.9c1 1.6 3.8 4.8 6.6 5"/><g stroke="#f24e1e" stroke-linecap="round" stroke-linejoin="round" stroke-width="3"><path d="M114.5 39.2A74 74 0 0 0 95.8 86m25.9-47.2c6.3 3.9 20 17 24.5 38.6"/><path d="M135.8 79.2C112.8 81.2 87 91 77 95.7c0-22.6 19-57 44.7-58.1 25.7-1.3 49.6 19 58.2 41.6-6.8 0-15.3-2.4-44.1 0Z"/><path d="M92.2 89.5c3.5 3.6 11.9 6.6 29 6.6 19 0 48.2-4.2 52.5-6.6 6.7-3.8 6.5-7.4 5.9-10m-64.9-40.7c-1.2-3.5-3-10.6-1-11.6 2.7-1.2 9 2.4 8.7 10"/></g><path fill="#000" fill-rule="evenodd" d="M108.8 121v-.2c0-.8-.7-1.5-1.5-1.4-1.4 0-3.5.5-5.3 1.4a7.8 7.8 0 0 0-4.3 5.4c-.5 3 0 5.3 1 6.9 1 1.5 2.4 2.3 3.1 2.7a13.6 13.6 0 0 0 5.4.6c1.2 0 2.5-.4 3.6-1.1 1.1-.8 2-2 2.3-3.6a12 12 0 0 0-.7-7 7 7 0 0 0-3-3.6l-.6-.1Zm-7.3 4a4.1 4.1 0 0 0-.9 2.2l.4-1 .5-1.1Zm1.3 4.4-.1.3.2.2v-.5Zm3-2.1v.5-.5Zm-1.8-3c.7-.2 1.6.1 2 .9l-.8.3.7-.3a4.6 4.6 0 0 1 .1.2 6.9 6.9 0 0 1 .4 1.5c0 .3 0 .8-.2 1.2-.5 1-1.4 1.3-2 1.3-.8 0-2-.2-2.4-1.4a2 2 0 0 1 0-1.5 2 2 0 0 1 1-1l.3-.2c.1-.4.4-.7.9-1Zm-.6 2.8ZM158 119c0-.9-.7-1.5-1.6-1.4-1.3 0-3.4.4-5.2 1.4a7.8 7.8 0 0 0-4.3 5.4c-.6 3 0 5.2 1 6.8 1 1.6 2.4 2.4 3.1 2.8a13.6 13.6 0 0 0 5.4.6c1.2-.1 2.5-.4 3.6-1.2 1.1-.7 2-2 2.3-3.6a12 12 0 0 0-.7-6.9 7 7 0 0 0-3-3.6l-.6-.1Zm-7.4 4.1a4.1 4.1 0 0 0-.8 2.1l.4-1c0-.4.2-.7.4-1Zm1.4 4.4-.2.3.3.2-.1-.5Zm3-2.1-.1.2v.2l.1-.4Zm.9 4a1.5 1.5 0 1 1 3 0 1.5 1.5 0 0 1-3 0Zm-2.7-7c.7-.3 1.6 0 2 .8l-.8.4.7-.4a4.6 4.6 0 0 1 .1.3 6.8 6.8 0 0 1 .4 1.5c0 .2 0 .7-.3 1.2-.4 1-1.3 1.3-2 1.3s-1.8-.3-2.3-1.4a2 2 0 0 1 0-1.5 2 2 0 0 1 1-1l.3-.2c.1-.4.4-.8.9-1Zm-.6 2.8Z" clip-rule="evenodd"/><path stroke="#000" stroke-linecap="round" stroke-linejoin="round" stroke-width="3" d="M99.5 113.8c1-1.3 3.8-3.4 6-2M150 110c1-1.3 4.2-1.4 4.7 0"/></g></svg>