<svg xmlns="http://www.w3.org/2000/svg" width="512" height="512" fill="none" shape-rendering="auto" viewBox="0 0 256 256"><mask id="viewboxMask"><rect width="256" height="256" x="0" y="0" fill="#fff" rx="0" ry="0"/></mask><g mask="url(#viewboxMask)"><path fill="#fff" d="M73.7 93.5a45.6 45.6 0 0 1 7.2-17c3-5 9-9.5 16.4-13a90.1 90.1 0 0 1 26.4-7.7c19-2.5 40.2.5 53.5 14l.6.4c7.8 7.5 9.5 18.5 9.2 30.3v1.3c1.5.3 3.3 1.3 4.8 3.2 1.8 2.4 2.8 6.3 1.8 12a21.4 21.4 0 0 1-2.9 8.1l-.8 1.5c-.8 1.4-1.6 2.9-2.7 3.8a4 4 0 0 1-3 .9l-.5 6.4c-2.2 37-4.7 59.8-22.1 79.2-16.9 18.7-43.6 13.3-57 0-10.7-10.7-28.5-33-32-83.4-1.9.3-3.7-1-5-3-1.6-2.4-3-6.1-4.1-11.8-1-5.5-.3-9.4 1.5-12a8.2 8.2 0 0 1 6.8-3.4h.5c.3-3.7.8-7 1.4-9.8Z"/><g stroke="#000" stroke-linecap="round" stroke-linejoin="round" stroke-width="3"><path d="M186.4 102.2c2.3 0 8.3 2.7 6.4 13.8-.9 4.9-2 6-3.7 9.2-1.5 2.8-2.7 4.9-5.5 3.6m-113.2-25c-3.8 0-9 3.2-7 13.8 2.2 11.4 5.6 14.4 7.9 13.7"/><path d="M82.2 74.4C75 84.8 70.4 94 72.7 131c3.2 51.9 21.4 74.5 32.2 85.2 13.1 13 39.3 18 55.7 0 17.3-19.2 19.8-41.8 22-79.2 1.5-24.9 9.4-52.8-5.4-67"/></g><path stroke="#000" stroke-linecap="round" stroke-linejoin="round" stroke-width="3" d="M140.3 153.4c.7.8 2.6 5.5-5.6 6.5-7 .8-7.1-3.7-7.1-5.3"/><g stroke="#000" stroke-linecap="round" stroke-linejoin="round" stroke-width="3"><path d="M111 205.2c3 1.1 9.3 3 24.3 1.7 18.7-1.7 19-3.3 23.4-5.9"/><path d="M135.7 201.6a36.7 36.7 0 0 0-18.7 5.1c15.7 12.4 34.8 0 34.8-2.6-2.4-1-2.4-3.3-16-2.5Z"/></g><g stroke="#0fa958" stroke-linecap="round" stroke-linejoin="round"><path stroke-width="6" d="m82 64 7.5 9.3L82 57l12.5 17.8L83.3 50l19.4 26.2L95.9 57c5.7 8.3 17 24.1 16 21.3-.9-2.8-5.6-12.8-8-17.5l17.5 19L115 62l13.8 16.3-2.5-13 10 11-2.3-15.5 10 15.5-5-18.2 13.2 16.7-4.5-19.2 12 17.7-5.4-19.6L165.2 72l-5.5-19.7 11 18-5.5-20.2 11 18-5.5-20"/><path stroke-width="3" d="M54 31.6C77 20.4 125-2 134.3-2c9.4 0 51.6 15.6 71.6 23.4L124 65.2 57.8 29.7"/><path stroke-width="6" d="m195.8 23.1-4.2-5.2-3.2 11-3.1-13.8-5.8 18.5-2-21.7-6.6 27.5a110 110 0 0 0 0-29.6c-2.4-8.2-3.5 30.8-5.9 23.8-1.8-5.6-3-22-3.8-27.3v36L154 5v41.2l-5.5-43-3.2 46-5.5-47.8-3.9 56.1-4-56.1-2.3 59.5-6.3-57.7-2.4 57.7L116.3 5 111 57.5l-2.6-49.7-4.9 45-3.4-40.9-3.6 37.3-2-34-5.4 31L87.5 18c-1 7.8-3.6 23.7-5.2 24.4-2 1-1.7-11.8-1.3-20 .3-6.7-3 5.7-5.4 13.6l-3-11-2.4 8.7L66 29"/><path stroke-width="3" d="M79.1 42.5V70c0 3.2 34.6 12.1 42.4 12.1 6.3 0 40.3-8 56.6-12.1V37.7M55.8 33 50 74.5m6.3-42.1v40m.7-40 3.5 38"/></g><g stroke="#000" stroke-linecap="round" stroke-linejoin="round" stroke-width="3"><path d="M114.8 113c-6.4.3-17.8 3.1-17.8 11.4 0 12.4 9.7 14.6 13.2 14.6 3 0 9.2-1.6 11.5-4 2.3-2.6 3.2-12.6 1.6-15.8-1.1-2.2-3.2-5-7-5"/><path d="M102.7 121.3c-.4 0-1.2.2-1 .9.3.6 1.4.5 1.6 0 .3-.6-.2-1.8-.2-1.8m47.5 10.6c.3.6.5.4.7 0"/><path d="M152.3 119.4c-3 .8-8.6 3.8-7.4 9.9 1.3 6 5.8 7.7 10.4 6.4 4.5-1.4 7-7.6 6.4-10.3-1-3.4-5.7-6-9.4-5m-51.6-14.7c2.1 1.6 8 4.3 14.3 2.4 6.3-2 11.2-7.5 12.8-10.1m23.1 5.5c-1 1 .2 4.7 2.4 5.5 2.2.9 3.6 1.5 5.8 1.5"/></g></g></svg>