<svg xmlns="http://www.w3.org/2000/svg" width="512" height="512" fill="none" shape-rendering="auto" viewBox="0 0 256 256"><mask id="viewboxMask"><rect width="256" height="256" x="0" y="0" fill="#fff" rx="0" ry="0"/></mask><g mask="url(#viewboxMask)"><path fill="#fff" d="m176 91.2.3.4c.3.1.7.4.9.7a81 81 0 0 1 8 27.7c4.7-1.6 11.8 2 11.8 10 0 4-.3 6.7-1 9-.6 2.3-1.6 4-3 5.8a9.4 9.4 0 0 1-7.7 3.3 71.7 71.7 0 0 1-26.1 49.2 51.6 51.6 0 0 1-37.2 11.4 43.6 43.6 0 0 1-30.2-18 114.1 114.1 0 0 1-19.5-42.3c-1.5.2-3.8 0-6-1.2-3-1.5-5.7-4.7-6.8-10.6-1-5.3-.4-10 1.7-13a8 8 0 0 1 4.3-3.1c1.5-.5 3.2-.5 5 0A42.2 42.2 0 0 1 96 84.3a90.3 90.3 0 0 1 26.3-7.5c19.1-2.5 40.5.5 53.7 14.4Z"/><g stroke="#000" stroke-linecap="round" stroke-linejoin="round" stroke-width="3"><path d="M81.3 95c-17 17-15 61 11 96.5 15 20.5 42.2 25.1 66.7 6.5 34.5-26.2 30.5-83 18-106"/><path d="M186.4 121.4c3.6-1.9 10.7.8 10.7 8.7 0 7.8-1.1 10.8-3.7 14.2-2 2.6-5.6 3.2-8 2.7M69.7 121.9c-7.7-2.4-12.2 4-10.2 14.6 2.1 11.4 10.2 11.3 12.5 10.8"/></g><path stroke="#000" stroke-linecap="round" stroke-linejoin="round" stroke-width="3" d="M127.3 141c-4 .9-7.2 6.8-4 10 4 4 12.3 4.7 13.1 0 .7-3.9-1.3-6-2.7-6.7"/><g stroke="#000" stroke-linecap="round" stroke-linejoin="round" stroke-width="3"><path d="M106 191.2c3 1.1 9.3 3 24.3 1.7 18.7-1.7 19-3.3 23.4-5.9"/><path d="M130.7 187.6a36.7 36.7 0 0 0-18.7 5.1c15.7 12.4 34.8 0 34.8-2.6-2.4-1-2.4-3.3-16-2.5Z"/></g><g stroke="#0fa958" stroke-linecap="round" stroke-linejoin="round" stroke-width="3"><path d="M115.4 15c-10.8 5-32.6 21.4-33.8 45-1.5 29.7-6.6 42.6-1.2 47.8 5.4 5.1 21.9-10.7 48-6.2 26 4.6 44.9 5.9 48.7 0 3.8-5.8 2.7-51.9-3.4-64.1-6.1-12.3-23.3-22-38.6-22.6"/><path d="M79 93.4c25.7-3.9 81.7-9.2 99.3 0m-59.1-76.1C112.6 25 98.5 43 95.4 54.5c-3 11.4-3 29.5-3.2 35.6m32.6-73.3c-6.6 7.6-8.5 23.8-11.6 35.2-3 11.5-2.7 30-3 36"/><path d="M134.4 15.4c9.8 4.9 12.9 25 14.3 36.8a338 338 0 0 1 2.6 36.3m-22-72.6c4.4 2.4 3.1 14 1.3 32a112.7 112.7 0 0 0 1.5 40.1M112 .5c2.9 1.4 8.4 6.6 10.9 9-2-4-4.2-21 3.6-20.5 7.7.5 4.4 13.6 2.6 18.9 2.2-2.5 8.8-9.4 11.2-7.4 3 2.4 1.9 12.2-9.2 14.5-4.1.8-8.2 2.4-14.3 0-6-2.5-10.2-5.5-12.7-9.7-2.4-4.2 4.3-6.6 7.9-4.8Z"/></g><g stroke="#000" stroke-linecap="round" stroke-linejoin="round" stroke-width="3"><path d="M128 176.9c-14.7 2.1-46 8-58 11.5m123.8-14c-14.7 2.1-46.5 1-58.5 1.7"/><path d="M127.3 177.3c-14.7 2-38 11.6-51.5 13.1m114.7-12.2c-14.8 2.1-40.6-1.6-53.9-1.6m-8.6-.4c-14.6 2.1-45.1 5.8-57.4 7.5M195 169c-14.7 2.1-47.5 4.4-59.8 6.2"/></g><g stroke="#000" stroke-linecap="round" stroke-linejoin="round" stroke-width="3"><path d="M94.2 119.6c1.6.8 6 1.7 11.2 1.3 4.5-.4 6.5-1.5 7.8-2.9m33-1c2.1 1.9 5.9 2.3 8.3 2.3 2.3.1 5 0 7.1-.4M75 120.5l13.7 7.5m30.5 3.8a31.5 31.5 0 0 1 20.5-1.8m28.2-2.4c2.5-1.3 10.6-7.7 13.1-9.6m-91.9 10.6c-.3 3.7-1.7 15.6 0 17.6 2.6 3 27.8-1 29.5-1.5 1.6-.6 2-8.8-.5-15.4-2.2-5.5-20.8-3.1-28.4-1.8"/><path d="m90.5 133.9 2.8-5.4c-.8 3.3-3 11-2.8 12 .3 1.2 5.7-12.6 6.3-12.6.6.1-4.5 16-4.5 17s6-17 6.9-17c.9 0-4.2 15.6-3.6 16.5.6 1 5.4-16 6.2-16.9.7-.9-4.3 18.2-3.4 18.1.8 0 6.1-21 6.9-19 .7 2-4.9 21.2-3 19.5 2-1.6 5.4-21 6.8-19.5 1.4 1.5-3.6 20-2.4 19.5 1.3-.5 4.6-17.6 5.2-17.6.6 0-1 17.1-.5 17.1s3.3-14 3.7-15.1c.3-1.2 1-.5 1 3.4-.1 3-1.3 9-1.6 11l3-7.6m24.3-2.3 2.8-7c-.8 3.3-2.3 10-2 10.9.2 1.2 5-11.5 5.5-11.4.6 0-3.5 13.1-3.5 14 0 1 5-14 5.9-14 .9 0-3.6 14.8-3 15.7.6.9 4.8-15.3 5.6-16.2.7-.9-4.3 18.2-3.4 18.1.8 0 6.1-21 6.9-19 .7 2-5.1 20.7-3.2 19 2-1.6 5.6-20.5 7-19 1.4 1.5-3.6 20-2.4 19.6 1.3-.7 4.6-17.7 5.2-17.7.6 0-1 17-.5 17s2.7-12.7 3-13.9c.4-1.1 1.3-.5 1.2 3.3 0 3.1-.8 7.9-1.1 9.9l3-7.6"/><path d="M141.5 126.8c6-2.7 22.2-1 25.2 0 3.8 1.1 3.6 14.7 3.3 18-.4 3.4-22.1.2-26.8 0-3.7-.1-3-12.7-2.1-17.6"/></g></g></svg>