<svg xmlns="http://www.w3.org/2000/svg" width="512" height="512" fill="none" shape-rendering="auto" viewBox="0 0 256 256"><mask id="viewboxMask"><rect width="256" height="256" x="0" y="0" fill="#fff" rx="0" ry="0"/></mask><g mask="url(#viewboxMask)"><path fill="#fff" d="M73.9 102a57.1 57.1 0 0 1 5-14.8c2.8-4.9 8.7-9.3 16.2-12.8a89.7 89.7 0 0 1 26.2-7.6c19-2.5 40.4.5 53.6 14.5.3.3.4.7.3 1.2 2.1 4 4.3 9.8 6.3 16.8 1.3-.5 3-.9 4.6-.7 2 0 4 .9 5.2 3 2 3.6 2.2 9.1.7 15.4a7.4 7.4 0 0 1-3 4.7c-.9.5-1.7.8-2.5 1 1.2 7.8 2.1 16 2.5 24.3.5 13.2-.3 26.3-3.3 37.3-3 11-8.4 20-17 24.7a78.6 78.6 0 0 1-56 8 51 51 0 0 1-37.2-31.5 161.1 161.1 0 0 1-5.1-49.6 246 246 0 0 1 .3-8.4 4.9 4.9 0 0 1-4.9-2.1 17.4 17.4 0 0 1-2.6-8.2c-.7-5.7.2-10 2.3-12.8a7 7 0 0 1 4-2.7c1.4-.4 3-.2 4.4.3Z"/><g stroke="#000" stroke-linecap="round" stroke-linejoin="round" stroke-width="3"><path d="M79 87.3c-10.5 19.4-10.9 77.8-3.3 99 11.5 32.3 56.4 43.4 93.3 23.3 33.3-18.1 18-105 6.1-127.6"/><path d="M183 100.2c2.5-1.1 6.8-1.7 8.6 1.5 1.9 3.2 2 8.4.6 14.7-1 4-3.8 4.8-5.7 4.8M72.7 103c-6-2.6-10.8 2.6-9.5 13.7 1 7.8 3.4 9.6 6 9.3"/></g><path stroke="#000" stroke-linecap="round" stroke-linejoin="round" stroke-width="3" d="M128.7 141c3.9 2.1 11 11.9 10.2 17.3-.5 3.6-8.5 2.5-12.9 1.7M142.4 194.5c-4.2 2-20.4 6.7-30.4 4.2 6.2 10 35 11.4 39.6 2.5 5-9.4-4.1-9.3-9.2-6.7Z"/><g stroke="#0fa958" stroke-linecap="round" stroke-linejoin="round" stroke-width="3"><path d="M114.4 5c-10.8 5-32.6 21.4-33.8 45-1.5 29.7-6.6 42.6-1.2 47.8 5.4 5.1 21.9-10.7 48-6.2 26 4.6 44.9 5.9 48.7 0 3.8-5.8 2.7-51.9-3.4-64.1-6.1-12.3-23.3-22-38.6-22.6"/><path d="M78 83.4c25.7-3.9 81.7-9.2 99.3 0M118.2 7.3C111.6 15 97.5 33 94.4 44.5c-3 11.4-3 29.5-3.2 35.6m32.6-73.3c-6.6 7.6-8.5 23.8-11.6 35.2-3 11.5-2.7 30-3 36"/><path d="M133.4 5.4c9.8 4.9 12.9 25 14.3 36.8a338 338 0 0 1 2.6 36.3m-22-72.6c4.4 2.4 3.1 14 1.3 32a112.7 112.7 0 0 0 1.5 40.1M111-9.5c2.9 1.4 8.4 6.6 10.9 9-2-4-4.2-21 3.6-20.5 7.7.5 4.4 13.6 2.6 18.9 2.2-2.5 8.8-9.4 11.2-7.4 3 2.4 1.9 12.2-9.2 14.5-4.1.8-8.2 2.4-14.3 0-6-2.5-10.2-5.5-12.7-9.7-2.4-4.2 4.3-6.6 7.9-4.8Z"/></g><path stroke="#000" stroke-linecap="round" stroke-linejoin="round" stroke-width="3" d="M100.2 107.6c2.6 1.8 7.7 6 8.2 7.8.4 2-8.8 5.3-13.4 6.8m64.4-16.2c-3.6 1.3-10.5 4.3-9.7 6 1 2.1 6.9 3.7 9.7 5.8"/></g></svg>