<svg xmlns="http://www.w3.org/2000/svg" width="512" height="512" fill="none" shape-rendering="auto" viewBox="0 0 256 256"><mask id="viewboxMask"><rect width="256" height="256" x="0" y="0" fill="#fff" rx="0" ry="0"/></mask><g mask="url(#viewboxMask)"><path fill="#fff" d="M73.3 106.5c2-5.5 4-9.8 5.4-12.2-.1-.4 0-.8.1-1.1 3-4.9 9-9.3 16.4-12.9a90.7 90.7 0 0 1 26.3-7.5c19.2-2.5 40.7.5 53.9 14.4.2.3.4.6.4 1 1 1.1 2.2 3.2 3.6 6a109 109 0 0 1 4.4 10.2c1.4-.5 3-.7 4.6-.5a7 7 0 0 1 5.4 3.3c2 3.5 2.9 10 1.6 15.8a6.7 6.7 0 0 1-2.6 4.2 6 6 0 0 1-2.3 1c.5 2.8 1 5.6 1.3 8.5 2.8 23.3-1.3 49.6-26 62.6-23.6 12.4-47 16-65.6 12.3-18.7-3.8-32.6-15-36.7-32.5-3.2-13.5-1.3-31 2.2-46.7-1.5-.3-3-1.4-3.9-3-1.3-2.1-2-5.2-1.7-9.2.5-6.2 2.1-10.6 4.8-12.8a7 7 0 0 1 4.6-1.8 9 9 0 0 1 3.8.9Z"/><g stroke="#000" stroke-linecap="round" stroke-linejoin="round" stroke-width="3"><path d="M79 93.7c-6 10-22.2 57.6-15.5 86.4 8.1 34.4 54.6 44.9 102.1 19.7C214.3 174 182.2 95.5 175.3 88"/><path d="M184.3 105.4c2.6-1.1 7.4-1.3 9.3 2 1.8 3.2 2.7 9.3 1.4 15.1-.7 3.3-3 4.3-5 4.3m-117.5-19c-5.9-3.5-11.4-.2-12.4 12.2-.7 7.9 2.9 11.4 5.4 11"/></g><path stroke="#000" stroke-linecap="round" stroke-linejoin="round" stroke-width="3" d="M118 122.7c3.5 0 7.7 5.7 8.1 14.8.7 14.7-4.2 19.4 0 27 2.7 5 17.8 4.7 21.9-3.6 3.2-6.5-3-12-6.6-20.7-3.5-8.3-5.7-13.4-2-18.2"/><g stroke="#000" stroke-linecap="round" stroke-linejoin="round" stroke-width="3"><path d="M140.3 197.7c4.9-9.4-1.4-10-6.6-7.4a48.9 48.9 0 0 1-23.5 2.4c-6.4-2.4-9.8-6.7-10.2 4.3-.4 11 36.2 8.6 40.3.8Z"/><path d="M101.2 195.9c8 2.7 27 5.8 39.2-4M110 195l-1 5.6m7.8-4.2-.5 6.2m7.1-6.9 1 6.4m6.9-8.3 1.4 7"/></g><g stroke="#000" stroke-linecap="round" stroke-linejoin="round" stroke-width="3"><path d="M101.8 84.4c1.8 1.8 14.1 4 20.6-.6m-19-4.7c10.3 0 11.4-19.4 20-18.9m-54.1 99.6c3.6-1.7 9.4-5.3 10.2-20.9 1-19.5-11.7-33.8-4.7-44m5.5-6.9c2.5 3.6 7.4 2.8 11.1 0 8.3-6.4 7.2-15 14.7-19.7M98 43.5c-.5-.5-7-.2-15.6 3.8-13 6-16.8 16.2-19 30.2m131.9 68c.5 3.3 1.6 7.7-1.6 11m-6.5 1.5c1.8 1.3 4.8 6 2.7 15.2m12.1-59.5c2.6 4.3 7.4 7.4 5 18.4m-3 3.8c2.3 2.7 6 10 2.6 17.3m-78.9-92.4c1.7-3.8 8.6-8.7 11.4-4.9 4.3 6 3.8 10.3 10.8 15.1m-26.2 6.3c.8 2.6 5.7 7.4 16.8 6.5"/><path d="M74.3 89.4c-4.5 1.5-14 9-9.2 26 7 25.3 3.2 28 2.1 35.6m-3.6-87.3c-2.1-1.7-11.6 0-14 10m9.5.6c-4.8 0-14.5 8.6-11.3 28m14-18.8c-3.6-.6-10.9 6-11.3 36.7"/><path d="M65.6 88.3c-4.1 3.5-10.5 10-7 24.3 4.3 17.9 4.3 30.8 0 35.7m-11.9-41.1c-2.7 2.7-4.8 15.2 1 20.6m8.1-2.1c-2 1.7-5.5 8-2.5 20.4m-5.3-4.3c-1 6.6.3 20.7 12.8 24.9m-1.7-12.5c2.6 2.2 7 8.8 5 17.9m4.2-6.5 5.4 9.7m-5.9-90.7c3 .1 10.5-1.6 15.6-9.8m5.5-14.6c-9.2 6-16.3 3.3-19 17.9m3.8-18.4c19.5-4.3 25.7-15.1 37.8-15.1 7 0 9.8 4.3 10.8 7.5"/><path d="M80.7 70.5c3.5-2 11.4-3.8 17.3-10.8 6-7 14.6-11.9 20-6.5m-28.6 20c5.4-3.8 17.4-15 24.3-13.3m8.6-17.5c5-3.2 18-6.9 24.9 3m-.5 6c3.8-2 12.5-5.3 16.9-2.9 4.4 2.5 5.8 7.3 6 9.4m-6.7 5.6c5.4-1 15.4-5.6 21 2.1 5.7 7.8 4.9 16.3 8.1 21.7"/><path d="M165 67.8c6-1.6 14.2-.8 16.8 9.2m-15.7-4.9c3 .2 9.4 2.7 10.3 11.4 1 10.8-.6 20 2.1 25.4m-30.8-46.5c3.5.7 11 5.3 14 17.8M132.6 70c6.5-2.7 10.8 2.1 17.3 8M131 76a11 11 0 0 1 13.5 5.3c3.9 7 11.3 8.7 14.6 8.7m2.7-5c2.3 5 1.7 13.8 10.8 16.8m8.6-18.3c2.4 0 6.8 3.3 6 16.7m-6.5-2.7c1.6 7 4.3 20 10.3 20.5m-13-3.2c-.8 4.7-1.4 15.8 3.3 22.7M83 144c.6 3 1.9 10 1 13.5m6-.5a70 70 0 0 1-4.6 15m-9.5-7.5c2.7 1.6 4.3 4.9 4.3 10.9m102.7-49.2c1.6 3.2 5.9 5.9 3.2 15.6m-5.9 2.7c-2.2 2.5-8.7 17.8.9 26.5"/><path d="M184.3 153.7c-2.1 0-5.6 1.8-2.1 9.2m.7-45.9c3.2 7.5 10.8 7 10.8 16.7s-5 12.8-7.6 15.7m8.6-68.1c1.7 2.4 5 7.9 1.2 13.7m-4.4 4.1c2.9-.7 8.6 0 8.6 8.1m-40.5-41.6c-2.1-6.4-1.6-11.3-10.2-10.2M93.2 77.5c-3.8 3.3-6 4.9-10.3 5.4m84.3-4.3c2.6 1.4 4.3 6.5 3.1 14m19.6 11.4c2 1.4 6.4 6.2 8 13.5 2.2 9.2.6 21.6 1.7 26m-5.4 19.9c2.5-1.6 7.7-6.1 8.1-11.3m-2.2 10.8c1 1.4 2 5.5-1 10.3m7.1-15c0 3 1 6.8 2.6 10.6M126.1 54.3c2.2-4.4 8.7-9.5 13-7m-22.7 32.9c0-4.3 2-9.6 5.4-11.9 4.9-3.2 9.2-3.7 13.5-3.7"/></g><path stroke="#000" stroke-linecap="round" stroke-linejoin="round" stroke-width="3" d="M103 174c6 4.5 20.8 11 32 0m4.7-1c3 3.8 17.3 9.1 30-1M92 130.9c.6-1 2.2-3 4-3.2m.8 6.5 2.8-5m3.9 1.6c0 1.1-1.2 5.4-1.2 5.4m-10-15.1c1.2 2.8 5 8.4 10.3 9.2 5.4.7 9.2-1.1 10.4-2.1m38.8 1.1v3.7m3.6-4.6 1.6 3.6m1.8-4.6c.7.7 2.6 2 2.6 3m-17.6-6.4c1.2 1.5 4.2 4.3 6.5 4.3 3 0 8.2-.8 12-4.3m-70.2-13c1-1.6 4.6-4.9 11-5.3 6.5-.4 9.1 1.2 9.7 2m31.9 2c1.5-2 5.9-6.2 11.5-6.2 2.3.4 7.1 2.1 8.8 6.6"/></g></svg>